<svg xmlns="http://www.w3.org/2000/svg" viewBox="0 0 800 450">
  <!-- Fundo branco -->
  <rect width="800" height="450" fill="white"/>
  
  <!-- Faixas verticais para cada hora -->
  <rect x="0" width="33.33" height="450" fill="#353b4f"/>
  <rect x="33.33" width="33.33" height="450" fill="#3d4259"/>
  <rect x="66.66" width="33.33" height="450" fill="#464b64"/>
  <rect x="99.99" width="33.33" height="450" fill="#4e546e"/>
  <rect x="133.32" width="33.33" height="450" fill="#5d6483"/>
  <rect x="166.65" width="33.33" height="450" fill="#7a80a0"/>
  <rect x="199.98" width="33.33" height="450" fill="#9ba3c2"/>
  <rect x="233.31" width="33.33" height="450" fill="#b6c0da"/>
  <rect x="266.64" width="33.33" height="450" fill="#c5d3e5"/>
  <rect x="299.97" width="33.33" height="450" fill="#d6e5ec"/>
  <rect x="333.3" width="33.33" height="450" fill="#e4ecd9"/>
  <rect x="366.63" width="33.33" height="450" fill="#eeecc0"/>
  <rect x="399.96" width="33.33" height="450" fill="#f5f0c6"/>
  <rect x="433.29" width="33.33" height="450" fill="#f7edd0"/>
  <rect x="466.62" width="33.33" height="450" fill="#f9e0c0"/>
  <rect x="499.95" width="33.33" height="450" fill="#f9d0b3"/>
  <rect x="533.28" width="33.33" height="450" fill="#f0c4b1"/>
  <rect x="566.61" width="33.33" height="450" fill="#e8b8ae"/>
  <rect x="599.94" width="33.33" height="450" fill="#b6c0da"/>
  <rect x="633.27" width="33.33" height="450" fill="#9ba3c2"/>
  <rect x="666.6" width="33.33" height="450" fill="#7a80a0"/>
  <rect x="699.93" width="33.33" height="450" fill="#5d6483"/>
  <rect x="733.26" width="33.33" height="450" fill="#464b64"/>
  <rect x="766.59" width="33.34" height="450" fill="#353b4f"/>
  
  <!-- Rótulos das horas em pequenos textos -->
  <g font-family="Arial" font-size="10" fill="white" text-anchor="middle">
    <text x="16.67" y="20">0</text>
    <text x="50" y="20">1</text>
    <text x="83.33" y="20">2</text>
    <text x="116.66" y="20">3</text>
    <text x="149.99" y="20">4</text>
    <text x="183.32" y="20">5</text>
    <text x="216.65" y="20">6</text>
    <text x="249.98" y="20">7</text>
    <text x="283.31" y="20">8</text>
    <text x="316.64" y="20">9</text>
    <text x="349.97" y="20">10</text>
    <text x="383.3" y="20">11</text>
    <text x="416.63" y="20">12</text>
    <text x="449.96" y="20">13</text>
    <text x="483.29" y="20">14</text>
    <text x="516.62" y="20">15</text>
    <text x="549.95" y="20">16</text>
    <text x="583.28" y="20">17</text>
    <text x="616.61" y="20">18</text>
    <text x="649.94" y="20">19</text>
    <text x="683.27" y="20">20</text>
    <text x="716.6" y="20">21</text>
    <text x="749.93" y="20">22</text>
    <text x="783.26" y="20">23</text>
  </g>
  
  <!-- Textos das horas em grupos específicos -->
  <g font-family="Arial" font-size="12" fill="black" text-anchor="middle">
    <text x="100" y="430">Madrugada</text>
    <text x="300" y="430">Manhã</text>
    <text x="500" y="430">Tarde</text>
    <text x="700" y="430">Noite</text>
  </g>
</svg>
